# xmcd
# 
# Track frame offsets:
#     150
#     16710
#     29487
#     43728
#     58943
#     76436
#     89533
#     111284
#     127709
#     143527
# 
# Disc length: 2168
# 
# Revision: 0
# Processed by: cddbd v1.5.2PL0 Copyright (c) Steve Scherf et al.
# Submitted via: fre:ac v1.0.27
# 
DISCID=7c08760a
DTITLE=Lucía Caramés - En el río
DYEAR=2018
DGENRE=Pop-Folk
TTITLE0=Mi marinero
TTITLE1=In-tuyo
TTITLE2=En tu ausencia
TTITLE3=Nuevo camino
TTITLE4=Todo es verdad
TTITLE5=El café
TTITLE6=En el río
TTITLE7=Todo por hacer
TTITLE8=Miedo
TTITLE9=Hallelujah
EXTD=
EXTT0=
EXTT1=
EXTT2=
EXTT3=
EXTT4=
EXTT5=
EXTT6=
EXTT7=
EXTT8=
EXTT9=
PLAYORDER=
